<svg width="182" height="47" viewBox="0 0 182 47" fill="none" xmlns="http://www.w3.org/2000/svg">
<path d="M29.8234 23.5635L14.3528 43.8767C14.1348 44.1622 13.823 44.3609 13.4727 44.4375C13.1225 44.514 12.7566 44.4635 12.44 44.2948C11.5162 43.805 10.6265 43.2532 9.77679 42.6431V26.2158H20.9087V20.9711H6.42802C5.9301 20.9711 5.45257 21.1696 5.10048 21.5229C4.7484 21.8762 4.5506 22.3555 4.5506 22.8551V33.7096C4.55049 33.9509 4.46943 34.1851 4.32048 34.3745C4.17154 34.564 3.96339 34.6975 3.72957 34.7538C3.49575 34.81 3.24987 34.7856 3.03156 34.6844C2.81325 34.5833 2.63523 34.4114 2.52616 34.1964C0.964254 31.1054 0.104562 27.7054 0.00895602 24.2411C-0.0866505 20.7768 0.584206 17.3342 1.97324 14.1613C2.08171 13.9173 2.25844 13.7101 2.48197 13.565C2.70549 13.4199 2.9662 13.343 3.23243 13.3438H21.0713C21.275 13.3438 21.4761 13.3899 21.6596 13.4787C21.8431 13.5675 22.0043 13.6968 22.1311 13.8568L29.8234 23.5635Z" fill="url(#paint0_linear_2_604)"/>
<path d="M40.7963 37.4118C40.9904 37.6546 41.0932 37.9583 41.0866 38.2696C41.08 38.5809 40.9644 38.8799 40.7601 39.1142C38.575 41.5933 35.8894 43.5776 32.8817 44.9355C29.874 46.2934 26.6128 46.9938 23.3147 46.9902C22.4336 46.9903 21.5531 46.9409 20.6774 46.8422C20.4924 46.8218 20.3162 46.7525 20.1667 46.6414C20.0172 46.5302 19.8997 46.3813 19.8264 46.2097C19.7531 46.0381 19.7265 45.85 19.7493 45.6647C19.7722 45.4794 19.8437 45.3035 19.9565 45.155L33.1756 27.7964L40.7963 37.4118Z" fill="url(#paint1_linear_2_604)"/>
<path d="M40.6497 9.34681L33.0954 19.2665L25.0301 9.08801C24.7853 8.77935 24.4741 8.53012 24.1199 8.35888C23.7657 8.18764 23.3776 8.09881 22.9845 8.09901H8.52742C8.30063 8.09864 8.07933 8.02901 7.89293 7.89937C7.70653 7.76974 7.56386 7.58625 7.48388 7.37328C7.40391 7.16032 7.39041 6.92797 7.44519 6.70712C7.49997 6.48628 7.62043 6.28739 7.79055 6.1369C12.3816 2.02488 18.4066 -0.0986725 24.5515 0.229345C30.6965 0.557363 36.463 3.31034 40.5935 7.88791C40.7711 8.08626 40.8739 8.34071 40.8842 8.60717C40.8944 8.87363 40.8115 9.13529 40.6497 9.34681Z" fill="url(#paint2_linear_2_604)"/>
<path d="M46.6277 23.5933C46.6315 26.5076 46.0907 29.3968 45.0333 32.1111C44.9734 32.2617 44.8751 32.3938 44.7483 32.4943C44.6215 32.5947 44.4706 32.6599 44.3107 32.6834C44.1509 32.7068 43.9877 32.6877 43.8375 32.6279C43.6874 32.5681 43.5555 32.4697 43.4552 32.3426L36.4477 23.4996L43.0841 14.7867C43.205 14.6277 43.3658 14.5036 43.55 14.4273C43.7343 14.351 43.9354 14.3251 44.1329 14.3523C44.3303 14.3795 44.5171 14.4588 44.674 14.5821C44.831 14.7055 44.9525 14.8684 45.0262 15.0542C46.088 17.7749 46.6312 20.6714 46.6277 23.5933Z" fill="url(#paint3_linear_2_604)"/>
<path d="M73.9746 15.4742C73.9746 19.4233 71.1811 22.518 67.0582 22.518C63.2244 22.518 60.1033 19.4993 60.1033 15.759C60.1033 12.0187 63.2244 9 67.0582 9C69.9673 9 72.4718 10.7277 73.5122 13.1959H70.449C70.062 12.6562 69.5527 12.2164 68.9632 11.9127C68.3738 11.609 67.7208 11.4502 67.0582 11.4492C64.7271 11.4492 62.8391 13.3668 62.8391 15.759C62.8391 18.1512 64.7271 20.0688 67.0582 20.0688C67.9666 20.0681 68.8502 19.7715 69.5762 19.2237C70.3023 18.676 70.8316 17.9065 71.0847 17.031H66.6536V14.8096H73.9746V15.4742Z" fill="black"/>
<path d="M75.2745 22.2144V9.30396H77.8946V22.2144H75.2745Z" fill="black"/>
<path d="M84.2741 22.556C81.3954 22.556 78.9494 20.2777 78.9494 17.3729C78.9494 14.4681 81.3954 12.1897 84.2741 12.1897C87.1528 12.1897 89.5988 14.468 89.5988 17.3729C89.5988 20.2778 87.1528 22.556 84.2741 22.556ZM84.2741 14.7576C82.9182 14.7576 81.7511 15.9354 81.7511 17.3729C81.7511 18.8104 82.9182 19.9881 84.2741 19.9881C85.63 19.9881 86.7971 18.8104 86.7971 17.3729C86.7971 15.9353 85.63 14.7576 84.2741 14.7576Z" fill="black"/>
<path d="M96.1546 22.5291C95.6068 22.515 95.0688 22.3802 94.5787 22.1341C94.0887 21.888 93.6586 21.5367 93.319 21.1051H93.2821V22.1873H90.647V9.27686H93.4294V13.2639H93.4663C94.2028 12.6374 95.2155 12.1628 96.1546 12.1628C98.9717 12.1628 101.365 14.2702 101.365 17.346C101.365 20.4217 98.9717 22.5291 96.1546 22.5291ZM95.9739 14.7234C94.5896 14.7234 93.3955 15.9565 93.3955 17.3459C93.3955 18.7352 94.5896 19.9683 95.9739 19.9683C96.6607 19.9588 97.3161 19.6783 97.7984 19.1875C98.2807 18.6968 98.5511 18.0352 98.5511 17.3459C98.5511 16.6566 98.2807 15.995 97.7984 15.5042C97.3161 15.0135 96.6607 14.733 95.9739 14.7234Z" fill="black"/>
<path d="M112.52 22.2143H110.123V21.0751H110.086C109.561 22.0245 108.419 22.556 107.202 22.556C104.169 22.556 101.903 20.3726 101.903 17.3729C101.903 14.3731 104.337 12.1897 107.202 12.1897C110.236 12.1897 112.52 14.3351 112.52 17.4108V22.2143ZM107.24 14.7188C105.853 14.7188 104.657 15.9668 104.657 17.3729C104.657 18.779 105.853 20.0269 107.24 20.0269C108.626 20.0269 109.822 18.779 109.822 17.3729C109.822 15.9667 108.626 14.7188 107.24 14.7188Z" fill="black"/>
<path d="M114.049 22.2144V9.30396H116.67V22.2144H114.049Z" fill="black"/>
<path d="M125.248 14.5821H130.023V17.0312H125.248V22.2144H122.446V9.30396H131.108V11.7532H125.248L125.248 14.5821Z" fill="black"/>
<path d="M131.902 9.30396H135.235L137.855 13.31L140.513 9.30396H143.827L139.608 15.3035L144.444 22.2144H141.014L137.855 17.5438L134.734 22.2144H131.304L136.082 15.3035L131.902 9.30396Z" fill="black"/>
<path d="M60 35.438H62.853C62.8923 36.4632 63.7581 37.4126 64.8009 37.4126C65.9224 37.4126 66.8078 36.71 66.8078 35.7608C66.8078 34.7545 65.4699 34.2419 64.309 33.9381C61.8495 33.3116 60.2755 32.1345 60.2755 30.2168C60.2755 28.0145 62.0464 26.3438 64.8009 26.3438C67.7325 26.3438 69.3459 28.3752 69.4443 30.4447H66.6504C66.5914 29.4574 65.8043 28.793 64.8009 28.793C63.8368 28.793 63.0694 29.3625 63.0694 30.1409C63.0694 31.1282 64.6632 31.6218 66.2175 32.0395C68.1261 32.5522 69.6018 33.8621 69.6018 35.7608C69.6018 38.172 67.7523 39.8618 64.8009 39.8618C62.066 39.8618 60 37.9441 60 35.5709L60 35.438Z" fill="black"/>
<path d="M70.6832 35.2103V29.8752H73.3591V34.9825C73.3591 36.4444 74.2642 37.5836 75.7989 37.5836C77.3336 37.5836 78.2386 36.4444 78.2386 34.9825V29.8752H80.9144V35.2103C80.9144 37.7545 79.006 39.8998 75.7988 39.8998C72.5917 39.8998 70.6832 37.7545 70.6832 35.2103Z" fill="black"/>
<path d="M82.3504 27.5019C82.3504 26.7234 83.0194 26.0779 83.8261 26.0779C84.6327 26.0779 85.3018 26.7234 85.3018 27.5019C85.3018 28.2803 84.6329 28.9259 83.8261 28.9259C83.0193 28.9259 82.3504 28.2803 82.3504 27.5019ZM85.1641 29.8751V39.558H82.4881V29.8751H85.1641Z" fill="black"/>
<path d="M89.473 34.8873C89.473 36.7479 90.4569 37.5834 92.1293 37.5834V39.8996H91.8341C88.45 39.8996 86.7972 38.0959 86.7972 35.3241V26.6475H89.473V29.875H92.1293V32.0964H89.473L89.473 34.8873Z" fill="black"/>
<path d="M96.0279 35.6468C96.3964 36.7671 97.4284 37.5835 98.5892 37.5835C98.9989 37.5785 99.4019 37.4781 99.7664 37.2903C100.131 37.1025 100.447 36.8324 100.69 36.5013H103.491C103.117 37.5017 102.446 38.3634 101.57 38.9709C100.694 39.5783 99.6541 39.9024 98.5892 39.8997C95.77 39.8997 93.3745 37.6214 93.3745 34.7166C93.3745 31.8119 95.77 29.5334 98.5892 29.5334C101.408 29.5334 103.804 31.8118 103.804 34.7166C103.802 35.0289 103.771 35.3402 103.712 35.6468H96.0279ZM101.169 33.8812C100.837 32.7041 99.7871 31.8496 98.5892 31.8496C97.3914 31.8496 96.3411 32.7041 96.0095 33.8812H101.169Z" fill="black"/>
<path d="M105.031 27.3021L104.124 27.3048L104.122 26.718L106.636 26.7107L106.638 27.2974L105.731 27.3001L105.738 29.7239L105.038 29.726L105.031 27.3021Z" fill="black"/>
<path d="M106.8 26.7099L107.859 26.7068L108.597 28.6692H108.606L109.337 26.7025L110.392 26.6995L110.401 29.71L109.7 29.7121L109.693 27.4031H109.684L108.856 29.7145L108.322 29.716L107.511 27.4095H107.502L107.509 29.7185L106.809 29.7205L106.8 26.7099Z" fill="black"/>
<defs>
<linearGradient id="paint0_linear_2_604" x1="3.15175" y1="37.5846" x2="29.1591" y2="-0.387755" gradientUnits="userSpaceOnUse">
<stop stop-color="#FCE36E"/>
<stop offset="0.0078" stop-color="#F6E272"/>
<stop offset="0.1021" stop-color="#ADD69D"/>
<stop offset="0.1868" stop-color="#74CCBF"/>
<stop offset="0.2587" stop-color="#4BC5D7"/>
<stop offset="0.3152" stop-color="#31C1E6"/>
<stop offset="0.3492" stop-color="#28BFEC"/>
<stop offset="0.4447" stop-color="#36ABEC"/>
<stop offset="0.6395" stop-color="#5A77EE"/>
<stop offset="0.6899" stop-color="#6469EE"/>
<stop offset="0.7158" stop-color="#6E67E7"/>
<stop offset="1" stop-color="#DB579A"/>
</linearGradient>
<linearGradient id="paint1_linear_2_604" x1="23.8275" y1="51.7452" x2="49.8349" y2="13.7728" gradientUnits="userSpaceOnUse">
<stop stop-color="#FCE36E"/>
<stop offset="0.0078" stop-color="#F6E272"/>
<stop offset="0.1021" stop-color="#ADD69D"/>
<stop offset="0.1868" stop-color="#74CCBF"/>
<stop offset="0.2587" stop-color="#4BC5D7"/>
<stop offset="0.3152" stop-color="#31C1E6"/>
<stop offset="0.3492" stop-color="#28BFEC"/>
<stop offset="0.4447" stop-color="#36ABEC"/>
<stop offset="0.6395" stop-color="#5A77EE"/>
<stop offset="0.6899" stop-color="#6469EE"/>
<stop offset="0.7158" stop-color="#6E67E7"/>
<stop offset="1" stop-color="#DB579A"/>
</linearGradient>
<linearGradient id="paint2_linear_2_604" x1="3.66491" y1="37.9361" x2="29.6723" y2="-0.0362888" gradientUnits="userSpaceOnUse">
<stop stop-color="#FCE36E"/>
<stop offset="0.0078" stop-color="#F6E272"/>
<stop offset="0.1021" stop-color="#ADD69D"/>
<stop offset="0.1868" stop-color="#74CCBF"/>
<stop offset="0.2587" stop-color="#4BC5D7"/>
<stop offset="0.3152" stop-color="#31C1E6"/>
<stop offset="0.3492" stop-color="#28BFEC"/>
<stop offset="0.4447" stop-color="#36ABEC"/>
<stop offset="0.6395" stop-color="#5A77EE"/>
<stop offset="0.6899" stop-color="#6469EE"/>
<stop offset="0.7158" stop-color="#6E67E7"/>
<stop offset="1" stop-color="#DB579A"/>
</linearGradient>
<linearGradient id="paint3_linear_2_604" x1="24.2683" y1="52.0472" x2="50.2757" y2="14.0748" gradientUnits="userSpaceOnUse">
<stop stop-color="#FCE36E"/>
<stop offset="0.0078" stop-color="#F6E272"/>
<stop offset="0.1021" stop-color="#ADD69D"/>
<stop offset="0.1868" stop-color="#74CCBF"/>
<stop offset="0.2587" stop-color="#4BC5D7"/>
<stop offset="0.3152" stop-color="#31C1E6"/>
<stop offset="0.3492" stop-color="#28BFEC"/>
<stop offset="0.4447" stop-color="#36ABEC"/>
<stop offset="0.6395" stop-color="#5A77EE"/>
<stop offset="0.6899" stop-color="#6469EE"/>
<stop offset="0.7158" stop-color="#6E67E7"/>
<stop offset="1" stop-color="#DB579A"/>
</linearGradient>
</defs>
</svg>
