<svg width="553" height="415" viewBox="0 0 553 415" fill="none" xmlns="http://www.w3.org/2000/svg">
<mask id="mask0_20_2193" style="mask-type:alpha" maskUnits="userSpaceOnUse" x="0" y="0" width="553" height="415">
<rect width="553" height="415" fill="white"/>
</mask>
<g mask="url(#mask0_20_2193)">
<path d="M345.625 346.072C345.625 384.271 314.676 415.239 276.5 415.239V346.072H345.625Z" fill="#3699FF"/>
<path d="M0 346.072C5.00627e-06 307.873 30.9483 276.905 69.125 276.905V346.072H0Z" fill="#FF743C"/>
<path d="M483.875 276.905C445.699 276.905 414.75 245.938 414.75 207.739H483.875V276.905Z" fill="#D6DA34"/>
<path d="M69.125 415.239C30.9483 415.239 -7.8885e-06 384.271 0 346.072H69.125V415.239Z" fill="#D5E155"/>
<path d="M69.1247 381.371C49.6415 381.371 33.8472 365.567 33.8472 346.072H69.1247V381.371Z" fill="#2D3652"/>
<path d="M277 430C230.608 430 193 392.392 193 346H277V430Z" fill="#6ED47C"/>
<path d="M276.5 381.371C257.016 381.371 241.222 365.567 241.222 346.072H276.5V381.371Z" fill="#D5E155"/>
<path d="M69.125 138.572V173.155C69.125 192.255 53.6508 207.739 34.5625 207.739V173.155C34.5625 154.056 50.0367 138.572 69.125 138.572Z" fill="#D5E155"/>
<path d="M103.688 207.739V173.155C103.688 154.056 88.2132 138.572 69.125 138.572V173.155C69.125 192.255 84.5993 207.739 103.688 207.739Z" fill="#2D3652"/>
<path d="M34.5625 173.155V207.739C34.5625 226.838 19.0883 242.322 0 242.322L1.51078e-06 207.739C2.34515e-06 188.639 15.4742 173.155 34.5625 173.155Z" fill="#6ED47C"/>
<path d="M551.963 34.9292H517.401C498.312 34.9292 482.838 50.4127 482.838 69.5125H517.401C536.489 69.5125 551.963 54.029 551.963 34.9292Z" fill="#6ED47C"/>
<path d="M2.68918e-06 138.572L0 69.2859C-1.48519e-06 31.0207 30.9483 0 69.125 0V69.2859C69.125 107.551 38.1767 138.572 2.68918e-06 138.572Z" fill="#2D3652"/>
<path d="M34.5625 68.9281V34.6383C34.5625 15.5083 50.0367 0 69.125 0V34.2899C69.125 53.4206 53.6508 68.9281 34.5625 68.9281Z" fill="#6ED47C"/>
<path d="M138.25 415.239V346.072C138.25 307.873 107.301 276.905 69.125 276.905V346.072C69.125 384.271 100.074 415.239 138.25 415.239Z" fill="#F0F1F1"/>
<path d="M103.688 345.833V311.543C103.688 292.413 88.2132 276.905 69.125 276.905L69.125 311.195C69.125 330.326 84.5993 345.833 103.688 345.833Z" fill="#FFC700"/>
<path d="M103.688 69.6436V103.933C103.688 123.063 88.2132 138.572 69.125 138.572V104.282C69.125 85.1511 84.5993 69.6436 103.688 69.6436Z" fill="#D5E155"/>
<path d="M207.375 207.739H138.25C100.074 207.739 69.125 238.706 69.125 276.905H138.25C176.426 276.905 207.375 245.938 207.375 207.739Z" fill="#F0F1F1"/>
<path d="M138.012 242.322H103.742C84.6239 242.322 69.125 257.806 69.125 276.905H103.394C122.513 276.905 138.012 261.422 138.012 242.322Z" fill="#FF743C"/>
<path d="M345.625 311.489H380.013C399.197 311.489 414.75 326.972 414.75 346.072H380.362C361.177 346.072 345.625 330.588 345.625 311.489Z" fill="#6ED47C"/>
<path d="M414.75 415.239V346.072C414.75 307.873 445.699 276.905 483.875 276.905V346.072C483.875 384.271 452.926 415.239 414.75 415.239Z" fill="#6ED47C"/>
<path d="M449.312 345.833V311.543C449.312 292.413 464.787 276.905 483.875 276.905V311.195C483.875 330.325 468.401 345.833 449.312 345.833Z" fill="#2D3652"/>
<path d="M394.251 276.667C394.251 265.207 403.535 255.917 414.988 255.917C426.442 255.917 435.726 265.207 435.726 276.667C435.726 288.127 426.442 297.417 414.988 297.417C403.535 297.417 394.251 288.127 394.251 276.667Z" fill="#FF743C"/>
<path d="M404.739 276.786C404.739 271.056 409.381 266.411 415.108 266.411C420.834 266.411 425.476 271.056 425.476 276.786C425.476 282.516 420.834 287.161 415.108 287.161C409.381 287.161 404.739 282.516 404.739 276.786Z" fill="#FFC700"/>
<path d="M179.487 155.864C179.487 150.134 184.129 145.489 189.856 145.489C195.582 145.489 200.224 150.134 200.224 155.864C200.224 161.594 195.582 166.239 189.856 166.239C184.129 166.239 179.487 161.594 179.487 155.864Z" fill="#6ED47C"/>
<path d="M60.3056 257.706C60.3056 263.435 55.6634 268.081 49.9369 268.081C44.2103 268.081 39.5681 263.435 39.5681 257.706C39.5681 251.976 44.2103 247.331 49.9369 247.331C55.6634 247.331 60.3056 251.976 60.3056 257.706Z" fill="#FF743C"/>
<path d="M27.6501 257.706C27.6501 263.435 23.0079 268.081 17.2813 268.081C11.5548 268.081 6.9126 263.435 6.9126 257.706C6.9126 251.976 11.5548 247.331 17.2813 247.331C23.0079 247.331 27.6501 251.976 27.6501 257.706Z" fill="#2D3652"/>
<path d="M60.3056 225.03C60.3056 230.76 55.6634 235.405 49.9369 235.405C44.2103 235.405 39.5681 230.76 39.5681 225.03C39.5681 219.301 44.2103 214.655 49.9369 214.655C55.6634 214.655 60.3056 219.301 60.3056 225.03Z" fill="#6ED47C"/>
<path d="M8.10425 155.744C8.10425 150.607 12.2663 146.443 17.4004 146.443C22.5344 146.443 26.6965 150.607 26.6965 155.744C26.6965 160.882 22.5344 165.046 17.4004 165.046C12.2663 165.046 8.10425 160.882 8.10425 155.744Z" fill="#FF743C"/>
<path d="M483.875 172.917C483.875 153.817 468.401 138.333 449.312 138.333C430.224 138.333 414.75 153.817 414.75 172.917C414.75 192.016 430.224 207.5 449.312 207.5H483.875V172.917Z" fill="#FF743C"/>
<path d="M483 69V94C483 107.807 471.807 119 458 119V94C458 80.193 469.193 69 483 69Z" fill="#A04AE3"/>
<path d="M483.875 189.612C483.875 179.733 475.871 171.724 465.998 171.724C456.125 171.724 448.121 179.733 448.121 189.612C448.121 199.491 456.125 207.5 465.998 207.5H483.875V189.612Z" fill="#FFC700"/>
<path d="M153.743 103.869C153.743 93.2657 162.334 84.6694 172.932 84.6694C183.529 84.6694 192.12 93.2657 192.12 103.869C192.12 114.473 183.529 123.069 172.932 123.069C162.334 123.069 153.743 114.473 153.743 103.869Z" fill="#2D3652"/>
<path d="M345.625 380.655C345.625 361.556 361.099 346.072 380.188 346.072C399.276 346.072 414.75 361.556 414.75 380.655C414.75 399.755 399.276 415.239 380.188 415.239C361.099 415.239 345.625 399.755 345.625 380.655Z" fill="#FF743C"/>
<path d="M361.119 380.298C361.119 369.694 369.71 361.098 380.307 361.098C390.904 361.098 399.495 369.694 399.495 380.298C399.495 390.901 390.904 399.497 380.307 399.497C369.71 399.497 361.119 390.901 361.119 380.298Z" fill="#2D3652"/>
<path d="M138.25 207.739C157.338 207.739 172.812 192.255 172.812 173.155C172.812 154.056 157.338 138.572 138.25 138.572C119.162 138.572 103.688 154.056 103.688 173.155V207.739H138.25Z" fill="#FF743C"/>
<path d="M483.637 138.333C483.637 100.134 514.585 69.1667 552.762 69.1667V138.333H483.637Z" fill="#FF743C"/>
<path d="M552.762 276.667C514.585 276.667 483.637 245.699 483.637 207.5H552.762V276.667Z" fill="#3699FF"/>
<path d="M483.637 207.5C483.637 169.3 514.585 138.333 552.762 138.333V207.5H483.637Z" fill="#6ED47C"/>
<path d="M517.484 207.5C517.484 188.004 533.278 172.201 552.762 172.201V207.5H517.484Z" fill="#D5E155"/>
<path d="M483.875 380.762C483.875 399.862 499.349 415.346 518.438 415.346C537.526 415.346 553 399.862 553 380.762C553 361.663 537.526 346.179 518.438 346.179H483.875V380.762Z" fill="#FFC700"/>
<path d="M483.875 364.067C483.875 373.946 491.879 381.955 501.752 381.955C511.625 381.955 519.629 373.946 519.629 364.067C519.629 354.188 511.625 346.179 501.752 346.179H483.875V364.067Z" fill="#FF743C"/>
<path d="M518.199 276.667C537.287 276.667 552.762 292.15 552.762 311.25C552.762 330.35 537.287 345.833 518.199 345.833C499.111 345.833 483.637 330.35 483.637 311.25C483.637 292.15 499.111 276.667 518.199 276.667Z" fill="#FF743C"/>
<path d="M518.557 292.169C529.154 292.169 537.745 300.766 537.745 311.369C537.745 321.973 529.154 330.569 518.557 330.569C507.96 330.569 499.369 321.973 499.369 311.369C499.369 300.766 507.96 292.169 518.557 292.169Z" fill="#2D3652"/>
<path d="M246 296H296C323.614 296 346 318.386 346 346H296C268.386 346 246 323.614 246 296Z" fill="#A04AE3"/>
<path d="M296 321H320.874C334.75 321 346 332.193 346 346H321.126C307.249 346 296 334.807 296 321Z" fill="#6ED47C"/>
</g>
</svg>
